<?xml version="1.0" encoding="iso-8859-1"?>
<!-- Generator: Adobe Illustrator 19.0.0, SVG Export Plug-In . SVG Version: 6.00 Build 0)  -->
<svg version="1.1" id="Capa_1" xmlns="http://www.w3.org/2000/svg" xmlns:xlink="http://www.w3.org/1999/xlink" x="0px" y="0px"
	 viewBox="0 0 496 496" style="enable-background:new 0 0 496 496;" xml:space="preserve">
<path style="fill:#FFCB57;" d="M399.758,111.432l-33.944-33.944L347.166,88.68c-2.808-1.344-5.688-2.544-8.648-3.584L333.246,64h-48
	l-5.272,21.096c-2.96,1.048-5.84,2.248-8.648,3.584l-18.648-11.192l-33.944,33.944l11.192,18.648
	c-1.344,2.808-2.544,5.688-3.584,8.648L205.246,144v48l21.096,5.272c1.048,2.96,2.248,5.84,3.584,8.648l-11.192,18.648
	l33.944,33.944l18.648-11.192c2.808,1.344,5.688,2.544,8.648,3.584L285.246,272h48l5.272-21.096c2.96-1.048,5.84-2.248,8.648-3.584
	l18.648,11.192l33.944-33.944l-11.192-18.648c1.344-2.808,2.544-5.688,3.584-8.648L413.246,192v-48l-21.096-5.272
	c-1.048-2.96-2.248-5.84-3.584-8.648L399.758,111.432z"/>
<g>
	<rect x="301.246" y="8" style="fill:#E56565;" width="16" height="32"/>
	<rect x="301.246" y="328" style="fill:#E56565;" width="16" height="160"/>
	<rect x="301.246" y="296" style="fill:#E56565;" width="16" height="16"/>
</g>
<g>
	<path style="fill:#3F3A34;" d="M430.222,60.096C397.646,21.904,348.438,0,295.238,0h-51.744c-27.8,0-53.48,5.592-76.336,16.632
		c-60.4,29.152-97.912,88.648-97.912,155.248c0,20.512-9.184,39.624-25.2,52.432l-17.424,13.936l3.888,6.064
		c26.784,41.776,46.648,87.32,59.04,135.368l2.496,9.672c4.296,16.672,15,30.2,29.36,37.12c15.896,7.672,34.608,7.28,50.168-1.144
		l117.592-66.368l-7.856-13.936L163.838,411.32c-10.928,5.92-24.192,6.192-35.488,0.744c-10.112-4.872-17.704-14.608-20.824-26.712
		l-2.496-9.672c-0.664-2.576-1.432-5.12-2.136-7.688h22.352v-16H98.214c-12.12-38.712-28.96-75.688-50.392-110.216l6.224-4.968
		c19.832-15.864,31.2-39.528,31.2-64.928c0-60.416,34.056-114.376,88.864-140.84C194.782,21.056,218.126,16,243.494,16h51.744
		c48.504,0,93.272,19.856,122.816,54.48c28.712,33.648,40.496,77.344,33.216,123.04c-3.192,20.016-10.104,38.784-20.512,55.784
		c-42.864,69.944-65.512,146.24-65.512,220.64V480h-144v-64h-16v80h176v-26.056c0-71.448,21.832-144.848,63.152-212.28
		c11.512-18.8,19.152-39.528,22.672-61.624C475.102,145.64,462.022,97.36,430.222,60.096z"/>
	<rect x="109.246" y="200" style="fill:#3F3A34;" width="48" height="16"/>
	<path style="fill:#3F3A34;" d="M357.246,168c0-26.472-21.528-48-48-48s-48,21.528-48,48s21.528,48,48,48
		S357.246,194.472,357.246,168z M309.246,200c-17.648,0-32-14.352-32-32s14.352-32,32-32s32,14.352,32,32S326.894,200,309.246,200z"
		/>
	<path style="fill:#3F3A34;" d="M271.854,256.328c0.456,0.192,0.912,0.392,1.368,0.568L278.998,280h60.496l5.776-23.104
		c0.456-0.176,0.912-0.376,1.368-0.568l20.424,12.248L409.83,225.8l-12.24-20.416c0.184-0.456,0.376-0.912,0.56-1.368l23.096-5.768
		v-60.496l-23.104-5.776c-0.736-1.816-1.52-3.608-2.368-5.352l-14.424,6.912c1.216,2.544,2.304,5.168,3.256,7.856l1.432,4.048
		l19.2,4.8v35.504l-19.2,4.8l-1.432,4.048c-0.952,2.688-2.04,5.312-3.256,7.856l-1.864,3.88l10.192,16.984l-25.112,25.104
		l-16.976-10.184l-3.872,1.848c-2.56,1.224-5.168,2.312-7.856,3.256l-4.064,1.432l-4.8,19.232h-35.504l-4.808-19.208l-4.064-1.432
		c-2.688-0.944-5.296-2.032-7.856-3.256l-3.872-1.848l-16.976,10.184l-29.52-29.52l-11.312,11.312l38.352,38.352L271.854,256.328z"
		/>
	<path style="fill:#3F3A34;" d="M197.246,137.752v60.496l23.104,5.776c0.736,1.816,1.52,3.608,2.368,5.352l14.424-6.912
		c-1.216-2.544-2.304-5.168-3.256-7.856l-1.44-4.056l-19.2-4.8v-35.504l19.2-4.8l1.432-4.048c0.952-2.688,2.04-5.312,3.256-7.856
		l1.856-3.88l-10.184-16.984l25.112-25.112l16.976,10.184l3.872-1.848c2.56-1.224,5.168-2.312,7.856-3.256l4.064-1.432L291.494,72
		h35.504l4.808,19.208l4.064,1.432c2.688,0.944,5.296,2.032,7.856,3.256l3.872,1.848l16.976-10.184l29.52,29.52l11.312-11.312
		l-38.352-38.36L346.63,79.664c-0.456-0.192-0.912-0.384-1.368-0.568L339.494,56h-60.496l-5.776,23.096
		c-0.456,0.184-0.912,0.376-1.368,0.568L251.43,67.408l-42.768,42.776l12.24,20.424c-0.184,0.456-0.376,0.912-0.56,1.368
		L197.246,137.752z"/>
	<rect x="301.246" y="88" style="fill:#3F3A34;" width="16" height="16"/>
	
		<rect x="250.326" y="109.081" transform="matrix(-0.7072 0.707 -0.707 -0.7072 523.7929 17.2433)" style="fill:#3F3A34;" width="16" height="16"/>
	<rect x="229.246" y="160" style="fill:#3F3A34;" width="16" height="16"/>
	
		<rect x="250.331" y="210.928" transform="matrix(-0.707 0.7072 -0.7072 -0.707 595.8002 191.0176)" style="fill:#3F3A34;" width="16" height="16"/>
	<rect x="301.246" y="232" style="fill:#3F3A34;" width="16" height="16"/>
	
		<rect x="352.127" y="210.9" transform="matrix(-0.7072 0.707 -0.707 -0.7072 769.5748 119.0955)" style="fill:#3F3A34;" width="16" height="16"/>
	<rect x="373.246" y="160" style="fill:#3F3A34;" width="16" height="16"/>
	
		<rect x="352.136" y="109.111" transform="matrix(-0.707 0.7072 -0.7072 -0.707 697.5764 -54.7817)" style="fill:#3F3A34;" width="16" height="16"/>
</g>
<g>
</g>
<g>
</g>
<g>
</g>
<g>
</g>
<g>
</g>
<g>
</g>
<g>
</g>
<g>
</g>
<g>
</g>
<g>
</g>
<g>
</g>
<g>
</g>
<g>
</g>
<g>
</g>
<g>
</g>
</svg>
